<svg width="209" height="149" viewBox="0 0 209 149" fill="none" xmlns="http://www.w3.org/2000/svg">
<path fill-rule="evenodd" clip-rule="evenodd" d="M9.51016 125.409H0.779739V87.0511H25.6615C27.5323 87.0511 29.2784 87.4479 30.8997 88.2415C32.5211 89.0351 33.9554 90.2917 35.1402 92.0112C36.4498 93.6646 37.3852 95.3841 38.0088 97.1697C38.6324 98.9553 38.9442 100.807 38.9442 102.791L38.8818 102.857H39.0065C39.0065 104.775 38.6947 106.627 38.1335 108.479C37.5723 110.264 36.6369 112.05 35.3273 113.703C34.0177 115.357 32.5211 116.613 30.8997 117.473L36.5745 125.409H27.0958L22.3564 118.663H9.63489V125.409H9.51016ZM21.9199 110.992C23.4165 110.992 24.6637 110.86 25.6615 110.529C26.6592 110.198 27.4699 109.735 28.0312 109.074C28.6548 108.413 29.0913 107.619 29.4031 106.627C29.7149 105.635 29.902 104.444 30.0267 103.056C29.9643 101.998 29.7772 101.005 29.4654 100.013C29.1536 99.0215 28.7171 98.0956 28.1559 97.302C27.5323 96.5083 26.7216 95.847 25.7238 95.3841C24.7261 94.9211 23.4165 94.6566 21.8575 94.6566H9.44781V110.926H21.9199V110.992Z" fill="#51A8B1"/>
<path fill-rule="evenodd" clip-rule="evenodd" d="M127.308 125.409H118.578V87.0511H143.46C145.331 87.0511 147.077 87.4479 148.698 88.3077C150.319 89.1674 151.754 90.424 153.001 92.1435C154.31 93.7968 155.246 95.4502 155.807 97.2358C156.368 99.0215 156.68 100.873 156.68 102.791L156.618 102.857H156.743C156.743 104.775 156.431 106.627 155.807 108.479C155.184 110.264 154.248 111.984 152.939 113.637C151.754 115.357 150.319 116.613 148.698 117.407C147.077 118.2 145.331 118.597 143.46 118.597H127.246V125.409H127.308ZM139.781 110.992C141.277 110.992 142.524 110.86 143.522 110.529C144.52 110.198 145.393 109.735 146.017 109.074C146.64 108.413 147.139 107.553 147.513 106.561C147.887 105.569 148.074 104.378 148.199 102.99C148.137 101.931 147.95 100.939 147.638 99.9473C147.326 98.9553 146.827 98.0956 146.204 97.302C145.518 96.5083 144.645 95.9131 143.647 95.4502C142.587 94.9873 141.277 94.7227 139.781 94.7227H127.371V110.992H139.781Z" fill="#181E45"/>
<path d="M168.155 87.0511H159.424V125.409H168.155V87.0511Z" fill="#181E45"/>
<path fill-rule="evenodd" clip-rule="evenodd" d="M179.566 125.409H170.836V87.0511H195.717C197.588 87.0511 199.334 87.4479 200.956 88.3077C202.577 89.1674 204.011 90.424 205.258 92.1435C206.568 93.7968 207.503 95.4502 208.065 97.2358C208.626 99.0215 208.938 100.873 208.938 102.791L208.875 102.857H209C209 104.775 208.688 106.627 208.065 108.479C207.441 110.264 206.506 111.984 205.196 113.637C204.011 115.357 202.577 116.613 200.956 117.407C199.334 118.2 197.588 118.597 195.717 118.597H179.504V125.409H179.566ZM192.038 110.992C193.535 110.992 194.782 110.86 195.78 110.529C196.777 110.198 197.65 109.735 198.274 109.074C198.898 108.413 199.397 107.553 199.771 106.561C200.145 105.569 200.332 104.378 200.457 102.99C200.394 101.931 200.207 100.939 199.895 99.9473C199.584 98.9553 199.085 98.0956 198.461 97.302C197.775 96.5083 196.902 95.9131 195.904 95.4502C194.844 94.9873 193.535 94.7227 192.038 94.7227H179.628V110.992H192.038Z" fill="#181E45"/>
<path fill-rule="evenodd" clip-rule="evenodd" d="M2.40138 140.686H3.39914C4.20982 140.686 4.89578 140.488 5.33231 140.091C5.76883 139.694 6.01827 139.165 6.01827 138.57C6.01827 137.842 5.83119 137.313 5.45703 136.983C5.08287 136.652 4.45926 136.52 3.58622 136.52H2.40138V140.686ZM2.40138 145.977H1.34126V135.594H4.02274C5.08287 135.594 5.83119 135.858 6.39243 136.387C6.89131 136.917 7.20311 137.644 7.20311 138.504C7.20311 139.165 7.01603 139.76 6.57951 140.289C6.14299 140.818 5.70647 141.149 5.14523 141.348L7.88908 146.043H6.64187L4.14746 141.612C4.0851 141.612 3.52386 141.612 2.46374 141.612V145.977H2.40138ZM11.506 139.562C10.9447 139.562 10.4458 139.76 10.1964 140.223C9.8846 140.62 9.75988 141.149 9.69752 141.678H13.1897C13.1897 141.083 13.065 140.62 12.8155 140.223C12.5661 139.76 12.1296 139.562 11.506 139.562ZM14.3122 144.72C14.0004 145.117 13.6262 145.448 13.2521 145.712C12.8155 145.977 12.2543 146.109 11.5683 146.109C10.6953 146.109 9.94697 145.779 9.44808 145.117C8.88684 144.456 8.6374 143.53 8.6374 142.273C8.6374 141.215 8.88684 140.356 9.38572 139.694C9.8846 139.033 10.5706 138.702 11.506 138.702C12.3167 138.702 12.9403 138.967 13.3768 139.43C13.8133 139.893 14.1251 140.554 14.1875 141.348C14.1875 141.678 14.1875 142.009 14.1875 142.34H9.63517C9.63517 143.133 9.82224 143.795 10.134 144.39C10.4458 144.985 10.9447 145.249 11.506 145.249C11.9425 145.249 12.3166 145.183 12.6284 144.985C12.9402 144.787 13.2521 144.522 13.5015 144.125L14.3122 144.72ZM15.9959 135.594H16.9937V144.522C16.9937 144.787 17.056 144.985 17.1184 145.051C17.2431 145.117 17.3678 145.183 17.6173 145.183C17.6796 145.183 17.6796 145.183 17.742 145.183C17.8044 145.183 17.8667 145.183 17.9291 145.183L18.0538 145.779C17.9914 145.845 17.8667 145.845 17.8043 145.911C17.742 145.977 17.6173 145.977 17.4925 145.977C17.3678 145.977 17.3055 146.043 17.1807 146.043C17.056 146.043 16.9937 146.043 16.8689 146.043C16.5571 146.043 16.3077 145.911 16.1206 145.712C15.9335 145.514 15.8712 145.183 15.8712 144.72V135.594H15.9959ZM23.0426 142.207C22.1072 142.207 21.3589 142.406 20.7976 142.736C20.2364 143.067 19.9246 143.53 19.9246 144.125C19.9246 144.522 20.0493 144.787 20.2364 144.985C20.4235 145.183 20.6729 145.249 21.0471 145.249C21.4836 145.249 21.8578 145.117 22.2319 144.919C22.6061 144.72 22.9179 144.522 23.0426 144.39V142.207ZM19.1763 139.694C19.3634 139.43 19.7375 139.231 20.2364 139.033C20.7353 138.834 21.2342 138.702 21.7954 138.702C22.4814 138.702 23.0426 138.901 23.4168 139.231C23.8533 139.628 24.0404 140.091 24.0404 140.752V143.927C24.0404 144.456 24.1027 144.853 24.1651 144.985C24.2274 145.117 24.4145 145.249 24.6016 145.249C24.7263 145.249 24.9134 145.249 25.0381 145.183L25.1629 145.646C25.0381 145.779 24.9134 145.845 24.664 145.911C24.4769 145.977 24.2274 146.043 24.0404 146.043C23.7909 146.043 23.6038 145.977 23.4168 145.779C23.2297 145.58 23.105 145.249 23.105 144.853H23.0426C22.6685 145.249 22.2943 145.58 21.9201 145.779C21.4836 145.977 21.0471 146.109 20.6106 146.109C20.0493 146.109 19.6128 145.977 19.301 145.646C18.9892 145.316 18.8021 144.919 18.8021 144.324C18.8021 143.728 18.9892 143.199 19.3634 142.802C19.7375 142.406 20.2364 142.141 20.86 141.943C21.4836 141.744 22.2319 141.678 22.9802 141.678V141.149C22.9802 140.554 22.8555 140.157 22.6061 139.959C22.3566 139.76 22.0448 139.628 21.6707 139.628C21.1718 139.628 20.7976 139.76 20.4235 139.959C20.0493 140.157 19.7999 140.356 19.6128 140.488L19.1763 139.694ZM25.3499 138.834H26.3477V137.049H27.3455V138.834H28.9668L28.8421 139.76H27.3455V143.927C27.3455 144.324 27.4078 144.654 27.5325 144.919C27.6573 145.183 27.8443 145.316 28.1561 145.316C28.2809 145.316 28.4679 145.316 28.7174 145.249C28.9668 145.183 29.0915 145.183 29.1539 145.117L29.2163 146.043C29.1539 146.043 28.9668 146.109 28.7174 146.109C28.4679 146.175 28.2185 146.175 28.0938 146.175C27.5949 146.175 27.1584 146.043 26.8466 145.779C26.5348 145.514 26.4101 144.985 26.4101 144.257V139.826H25.4123V138.834H25.3499ZM30.5882 138.834H31.586V145.977H30.5882V138.834ZM30.5258 136.52C30.5258 136.387 30.5882 136.189 30.7129 136.057C30.8376 135.924 30.9624 135.858 31.1494 135.858C31.3365 135.858 31.4612 135.924 31.586 136.057C31.7107 136.189 31.773 136.321 31.773 136.52C31.773 136.718 31.7107 136.85 31.586 136.983C31.4612 137.115 31.3365 137.181 31.1494 137.181C30.9624 137.181 30.8376 137.115 30.7129 136.983C30.5882 136.85 30.5258 136.718 30.5258 136.52ZM36.5748 145.249C36.9489 145.249 37.1984 145.183 37.5102 144.985C37.7596 144.787 38.0091 144.522 38.2585 144.059C38.5079 143.596 38.6327 143.001 38.6327 142.207C38.6327 141.546 38.4456 140.885 38.1338 140.356C37.7596 139.826 37.2607 139.496 36.5748 139.496C35.8888 139.496 35.3899 139.76 35.0158 140.289C34.6416 140.818 34.4545 141.546 34.4545 142.34C34.4545 143.067 34.5792 143.662 34.8287 144.059C35.0781 144.456 35.3899 144.787 35.6394 144.919C35.8888 145.183 36.2006 145.249 36.5748 145.249ZM36.5748 146.109C35.5147 146.109 34.704 145.779 34.2051 145.051C33.6438 144.324 33.3944 143.464 33.3944 142.273C33.3944 141.215 33.7062 140.422 34.2675 139.694C34.8287 139.033 35.6394 138.636 36.5748 138.636C37.5725 138.636 38.3209 138.967 38.8821 139.694C39.4433 140.422 39.6928 141.281 39.6928 142.34C39.6928 143.332 39.381 144.191 38.8197 144.919C38.2585 145.779 37.5102 146.109 36.5748 146.109ZM41.4389 139.76C41.4389 139.496 41.4389 139.165 41.3765 138.834H42.3119C42.3743 139.033 42.3743 139.231 42.3743 139.496C42.6861 139.297 42.9979 139.099 43.372 138.901C43.7462 138.768 44.1827 138.702 44.5569 138.702C45.2428 138.702 45.8041 138.901 46.1782 139.297C46.5524 139.694 46.7395 140.223 46.7395 140.951V145.977H45.7417V141.149C45.7417 140.686 45.617 140.289 45.4299 140.025C45.2428 139.76 44.931 139.628 44.4945 139.628C44.1204 139.628 43.7462 139.694 43.372 139.826C42.9979 139.959 42.6861 140.091 42.3743 140.289V146.043H41.3765V139.76H41.4389ZM48.7974 144.257C49.1092 144.588 49.3586 144.853 49.6704 145.051C49.9822 145.249 50.3564 145.316 50.7929 145.316C51.2294 145.316 51.6036 145.183 51.9154 144.985C52.2272 144.787 52.3519 144.522 52.3519 144.125C52.3519 143.861 52.2895 143.662 52.1025 143.464C51.9777 143.265 51.6659 143.133 51.1671 142.935C50.98 142.869 50.6682 142.736 50.1693 142.538C49.6704 142.406 49.2339 142.207 48.8597 141.877C48.4232 141.546 48.2361 141.083 48.2361 140.554C48.2361 140.025 48.4856 139.562 48.9221 139.231C49.3586 138.901 49.9199 138.702 50.6682 138.702C50.9176 138.702 51.1671 138.702 51.3541 138.768C51.5412 138.768 51.7907 138.834 51.9777 138.901C52.1648 138.967 52.3519 139.033 52.539 139.165C52.7261 139.297 52.8508 139.43 53.0379 139.562L52.4766 140.289C52.1648 140.025 51.9154 139.826 51.6659 139.694C51.4165 139.562 51.1047 139.496 50.7305 139.496C50.294 139.496 49.9822 139.562 49.6704 139.76C49.421 139.959 49.2339 140.157 49.2339 140.488C49.2339 140.818 49.3586 141.017 49.6081 141.215C49.8575 141.414 50.1693 141.546 50.5435 141.678C50.7305 141.744 50.9176 141.81 51.1047 141.877C51.2918 141.943 51.4789 142.009 51.6659 142.075C52.2896 142.273 52.6637 142.538 52.9132 142.869C53.1626 143.199 53.2873 143.596 53.2873 144.059C53.2873 144.654 53.0379 145.183 52.539 145.514C52.0401 145.911 51.4789 146.043 50.7929 146.043C50.2317 146.043 49.7328 145.977 49.3586 145.845C48.9221 145.712 48.5479 145.382 48.1114 144.985L48.7974 144.257ZM54.8463 135.594H55.8441V139.363C56.0935 139.231 56.343 139.099 56.7171 138.901C57.0913 138.768 57.5278 138.702 57.9643 138.702C58.6503 138.702 59.2115 138.901 59.5857 139.363C59.9599 139.826 60.1469 140.356 60.1469 141.149V146.043H59.1492V141.215C59.1492 140.686 59.0244 140.289 58.775 140.025C58.5256 139.76 58.1514 139.628 57.6525 139.628C57.3407 139.628 57.0289 139.694 56.6548 139.826C56.343 139.959 56.0312 140.091 55.7194 140.223V146.043H54.7216V135.594H54.8463ZM62.2048 138.834H63.2026V145.977H62.2048V138.834ZM62.0801 136.52C62.0801 136.387 62.1425 136.189 62.2672 136.057C62.3919 135.924 62.5166 135.858 62.7037 135.858C62.8908 135.858 63.0155 135.924 63.1402 136.057C63.2649 136.189 63.3273 136.321 63.3273 136.52C63.3273 136.718 63.2649 136.85 63.1402 136.983C63.0155 137.115 62.8908 137.181 62.7037 137.181C62.5166 137.181 62.3919 137.115 62.2672 136.983C62.1425 136.85 62.0801 136.718 62.0801 136.52ZM67.8796 139.628C67.5678 139.628 67.256 139.694 67.0066 139.76C66.7571 139.826 66.4453 139.959 66.1335 140.157V144.654C66.3206 144.853 66.57 144.985 66.8195 145.051C67.1313 145.183 67.5054 145.183 67.8796 145.183C68.5032 145.183 68.9397 144.919 69.2515 144.39C69.5633 143.861 69.688 143.199 69.688 142.34C69.688 141.48 69.501 140.752 69.1892 140.289C68.8774 139.826 68.4408 139.628 67.8796 139.628ZM66.0088 138.834C66.0088 139.033 66.0712 139.165 66.0712 139.363C66.5077 139.165 66.8818 138.967 67.1936 138.901C67.5054 138.834 67.8172 138.768 68.129 138.768C69.0021 138.768 69.6257 139.099 70.1246 139.76C70.5611 140.422 70.8105 141.281 70.8105 142.406C70.8105 143.464 70.5611 144.324 70.0622 145.051C69.5633 145.779 68.8774 146.109 68.0667 146.109C67.6302 146.109 67.1936 146.043 66.8818 145.911C66.57 145.779 66.3206 145.646 66.1335 145.514V148.953H65.1358V139.826C65.1358 139.496 65.1358 139.165 65.0734 138.768H66.0088V138.834ZM72.5566 144.257C72.8684 144.588 73.1179 144.853 73.4297 145.051C73.7415 145.249 74.1156 145.316 74.5521 145.316C74.9887 145.316 75.3628 145.183 75.6746 144.985C75.9864 144.787 76.1112 144.522 76.1112 144.125C76.1112 143.861 76.0488 143.662 75.8617 143.464C75.737 143.265 75.4252 143.133 74.9263 142.935C74.7392 142.869 74.4274 142.736 73.9285 142.538C73.4297 142.406 72.9931 142.207 72.619 141.877C72.1825 141.546 71.9954 141.083 71.9954 140.554C71.9954 140.025 72.2448 139.562 72.6813 139.231C73.1179 138.901 73.6791 138.702 74.4274 138.702C74.6769 138.702 74.9263 138.702 75.1134 138.768C75.3005 138.768 75.5499 138.834 75.737 138.901C75.9241 138.967 76.1112 139.033 76.2982 139.165C76.4853 139.297 76.61 139.43 76.7971 139.562L76.2359 140.289C75.9241 140.025 75.6746 139.826 75.4252 139.694C75.1758 139.562 74.864 139.496 74.4898 139.496C74.0533 139.496 73.7415 139.562 73.4297 139.76C73.1802 139.959 72.9931 140.157 72.9931 140.488C72.9931 140.818 73.1179 141.017 73.3673 141.215C73.6167 141.414 73.9285 141.546 74.3027 141.678C74.4898 141.744 74.6769 141.81 74.8639 141.877C75.051 141.943 75.2381 142.009 75.4252 142.075C76.0488 142.273 76.423 142.538 76.6724 142.869C76.9218 143.199 77.0466 143.596 77.0466 144.059C77.0466 144.654 76.7971 145.183 76.2982 145.514C75.7993 145.911 75.2381 146.043 74.5521 146.043C73.9909 146.043 73.492 145.977 73.1179 145.845C72.6813 145.712 72.3072 145.382 71.8707 144.985L72.5566 144.257ZM89.5186 144.522C88.7079 145.646 87.6478 146.175 86.3382 146.175C85.0287 146.175 84.0309 145.646 83.3449 144.588C82.659 143.53 82.3472 142.273 82.3472 140.686C82.3472 139.165 82.7213 137.842 83.4697 136.85C84.218 135.858 85.2157 135.329 86.463 135.329C87.6478 135.329 88.5832 135.726 89.2068 136.52L88.5208 137.247C88.022 136.586 87.336 136.255 86.4006 136.255C85.5275 136.255 84.8416 136.652 84.2803 137.379C83.7191 138.107 83.4697 139.165 83.4697 140.488C83.4697 141.81 83.7191 142.935 84.2803 143.795C84.7792 144.654 85.5275 145.117 86.463 145.117C87.4607 145.117 88.2714 144.654 88.9574 143.795L89.5186 144.522ZM93.8838 145.249C94.258 145.249 94.5074 145.183 94.8192 144.985C95.0687 144.787 95.3181 144.522 95.5675 144.059C95.817 143.596 95.9417 143.001 95.9417 142.207C95.9417 141.546 95.7546 140.885 95.4428 140.356C95.0687 139.826 94.5698 139.496 93.8838 139.496C93.1979 139.496 92.699 139.76 92.3248 140.289C91.9507 140.818 91.7636 141.546 91.7636 142.34C91.7636 143.067 91.8883 143.662 92.1377 144.059C92.3872 144.456 92.699 144.787 92.9484 144.919C93.1979 145.183 93.5097 145.249 93.8838 145.249ZM93.9462 146.109C92.886 146.109 92.0754 145.779 91.5765 145.051C91.0152 144.324 90.7658 143.464 90.7658 142.273C90.7658 141.215 91.0776 140.422 91.6388 139.694C92.2001 139.033 93.0108 138.636 93.9462 138.636C94.9439 138.636 95.6923 138.967 96.2535 139.694C96.8147 140.422 97.0642 141.281 97.0642 142.34C97.0642 143.332 96.7524 144.191 96.1911 144.919C95.5675 145.779 94.8192 146.109 93.9462 146.109ZM99.5586 138.834C99.5586 138.967 99.6209 139.231 99.6209 139.496C99.9327 139.297 100.245 139.099 100.619 138.901C100.993 138.768 101.367 138.636 101.804 138.636C102.053 138.636 102.365 138.702 102.614 138.834C102.864 138.967 103.113 139.165 103.3 139.496C104.111 138.967 104.922 138.702 105.67 138.702C105.982 138.702 106.293 138.768 106.481 138.901C106.73 139.033 106.917 139.165 107.042 139.363C107.167 139.562 107.291 139.76 107.354 140.091C107.416 140.356 107.478 140.62 107.478 140.951V146.043H106.481V141.083C106.481 140.818 106.481 140.62 106.418 140.422C106.356 140.223 106.293 140.091 106.169 139.959C106.044 139.826 105.919 139.76 105.795 139.694C105.67 139.628 105.483 139.628 105.358 139.628C104.734 139.628 104.173 139.76 103.612 140.091C103.674 140.356 103.674 140.62 103.674 140.951V146.043H102.677V141.083C102.677 140.62 102.552 140.223 102.365 139.959C102.178 139.694 101.866 139.628 101.554 139.628C101.305 139.628 100.993 139.694 100.619 139.826C100.245 139.959 99.9328 140.091 99.6833 140.289V146.043H98.6855V139.694C98.6855 139.363 98.6855 139.099 98.6232 138.834H99.5586ZM110.409 138.834C110.409 138.967 110.472 139.231 110.472 139.496C110.783 139.297 111.095 139.099 111.469 138.901C111.844 138.768 112.218 138.636 112.654 138.636C112.904 138.636 113.215 138.702 113.465 138.834C113.714 138.967 113.964 139.165 114.151 139.496C114.962 138.967 115.772 138.702 116.521 138.702C116.832 138.702 117.144 138.768 117.331 138.901C117.581 139.033 117.768 139.165 117.893 139.363C118.017 139.562 118.142 139.76 118.204 140.091C118.267 140.356 118.329 140.62 118.329 140.951V146.043H117.331V141.083C117.331 140.818 117.331 140.62 117.269 140.422C117.207 140.223 117.144 140.091 117.019 139.959C116.895 139.826 116.77 139.76 116.645 139.694C116.521 139.628 116.333 139.628 116.209 139.628C115.585 139.628 115.024 139.76 114.463 140.091C114.525 140.356 114.525 140.62 114.525 140.951V146.043H113.527V141.083C113.527 140.62 113.403 140.223 113.215 139.959C113.028 139.694 112.717 139.628 112.405 139.628C112.155 139.628 111.844 139.694 111.469 139.826C111.095 139.959 110.783 140.091 110.534 140.289V146.043H109.536V139.694C109.536 139.363 109.536 139.099 109.474 138.834H110.409ZM120.387 138.834H121.385V145.977H120.387V138.834ZM120.262 136.52C120.262 136.387 120.325 136.189 120.449 136.057C120.574 135.924 120.699 135.858 120.886 135.858C121.073 135.858 121.198 135.924 121.322 136.057C121.447 136.189 121.509 136.321 121.509 136.52C121.509 136.718 121.447 136.85 121.322 136.983C121.198 137.115 121.073 137.181 120.886 137.181C120.699 137.181 120.574 137.115 120.449 136.983C120.325 136.85 120.262 136.718 120.262 136.52ZM122.57 138.834H123.567V137.049H124.565V138.834H126.186L126.062 139.76H124.503V143.927C124.503 144.324 124.565 144.654 124.69 144.919C124.814 145.183 125.002 145.316 125.313 145.316C125.438 145.316 125.625 145.316 125.875 145.249C126.124 145.183 126.249 145.183 126.311 145.117L126.373 146.043C126.311 146.043 126.124 146.109 125.875 146.109C125.625 146.175 125.376 146.175 125.251 146.175C124.752 146.175 124.316 146.043 124.004 145.779C123.692 145.514 123.567 144.985 123.567 144.257V139.826H122.57V138.834ZM126.872 138.834H127.87V137.049H128.868V138.834H130.489L130.365 139.76H128.806V143.927C128.806 144.324 128.868 144.654 128.993 144.919C129.117 145.183 129.304 145.316 129.616 145.316C129.741 145.316 129.928 145.316 130.177 145.249C130.427 145.183 130.552 145.183 130.614 145.117L130.676 146.043C130.614 146.043 130.427 146.109 130.177 146.109C129.928 146.175 129.679 146.175 129.554 146.175C129.055 146.175 128.618 146.043 128.307 145.779C127.995 145.514 127.87 144.985 127.87 144.257V139.826H126.872V138.834ZM134.667 139.562C134.106 139.562 133.607 139.76 133.358 140.223C133.046 140.62 132.921 141.149 132.859 141.678H136.351C136.351 141.083 136.226 140.62 135.977 140.223C135.665 139.76 135.229 139.562 134.667 139.562ZM137.474 144.72C137.162 145.117 136.788 145.448 136.413 145.712C135.977 145.977 135.416 146.109 134.73 146.109C133.857 146.109 133.108 145.779 132.61 145.117C132.048 144.456 131.799 143.53 131.799 142.273C131.799 141.215 132.048 140.356 132.547 139.694C133.046 139.033 133.732 138.702 134.667 138.702C135.478 138.702 136.102 138.967 136.538 139.43C136.975 139.893 137.287 140.554 137.349 141.348C137.349 141.678 137.349 142.009 137.349 142.34H132.797C132.797 143.133 132.984 143.795 133.295 144.39C133.607 144.985 134.106 145.249 134.667 145.249C135.104 145.249 135.478 145.183 135.79 144.985C136.102 144.787 136.413 144.522 136.663 144.125L137.474 144.72ZM141.714 145.183C142.338 145.183 142.961 144.919 143.71 144.456V139.826C143.211 139.694 142.712 139.628 142.151 139.628C141.34 139.628 140.779 139.893 140.467 140.488C140.093 141.083 139.968 141.678 139.968 142.406C139.968 143.199 140.155 143.795 140.467 144.39C140.779 144.919 141.215 145.183 141.714 145.183ZM141.964 138.702C142.525 138.702 143.148 138.834 143.71 139.099V135.594H144.707V143.728C144.707 144.324 144.707 144.787 144.77 145.051C144.832 145.316 144.894 145.646 145.019 145.977H144.146C143.959 145.712 143.834 145.382 143.772 145.051H143.71C143.335 145.382 143.024 145.646 142.649 145.779C142.275 145.977 141.901 146.043 141.527 146.043C140.779 146.043 140.155 145.712 139.656 145.051C139.157 144.39 138.908 143.53 138.908 142.406C138.908 141.348 139.157 140.422 139.719 139.694C140.28 139.099 141.028 138.702 141.964 138.702ZM156.93 136.586H153.874V145.977H152.814V136.52H149.759V135.594H156.868V136.586H156.93ZM159.736 145.249C160.11 145.249 160.36 145.183 160.672 144.985C160.921 144.787 161.17 144.522 161.42 144.059C161.669 143.596 161.794 143.001 161.794 142.207C161.794 141.546 161.607 140.885 161.295 140.356C160.921 139.826 160.422 139.496 159.736 139.496C159.05 139.496 158.551 139.76 158.177 140.289C157.803 140.818 157.616 141.546 157.616 142.34C157.616 143.067 157.741 143.662 157.99 144.059C158.24 144.456 158.551 144.787 158.801 144.919C159.05 145.183 159.362 145.249 159.736 145.249ZM159.799 146.109C160.734 146.109 161.42 145.779 161.981 145.051C162.542 144.324 162.854 143.464 162.854 142.472C162.854 141.414 162.605 140.554 162.044 139.826C161.482 139.099 160.734 138.768 159.736 138.768C158.801 138.768 157.99 139.099 157.429 139.826C156.868 140.488 156.556 141.348 156.556 142.406C156.556 143.53 156.805 144.456 157.367 145.183C157.928 145.779 158.738 146.109 159.799 146.109ZM169.402 140.686H170.4C171.21 140.686 171.896 140.488 172.333 140.091C172.769 139.694 173.019 139.165 173.019 138.57C173.019 137.842 172.832 137.313 172.458 136.983C172.084 136.652 171.46 136.52 170.587 136.52H169.402V140.686ZM169.402 145.977H168.342V135.594H171.023C172.084 135.594 172.832 135.858 173.393 136.387C173.892 136.917 174.204 137.644 174.204 138.504C174.204 139.165 174.017 139.76 173.58 140.289C173.144 140.818 172.707 141.149 172.146 141.348L174.89 146.043H173.643L171.148 141.612C171.086 141.612 170.524 141.612 169.464 141.612V145.977H169.402ZM178.507 139.562C177.945 139.562 177.447 139.76 177.197 140.223C176.885 140.62 176.761 141.149 176.698 141.678H180.19C180.19 141.083 180.066 140.62 179.816 140.223C179.567 139.76 179.13 139.562 178.507 139.562ZM181.313 144.72C181.001 145.117 180.627 145.448 180.253 145.712C179.816 145.977 179.255 146.109 178.569 146.109C177.696 146.109 176.948 145.779 176.449 145.117C175.887 144.456 175.638 143.53 175.638 142.273C175.638 141.215 175.888 140.356 176.386 139.694C176.885 139.033 177.571 138.702 178.507 138.702C179.317 138.702 179.941 138.967 180.377 139.43C180.814 139.893 181.126 140.554 181.188 141.348C181.188 141.678 181.188 142.009 181.188 142.34H176.636C176.636 143.133 176.823 143.795 177.135 144.39C177.447 144.985 177.945 145.249 178.507 145.249C178.943 145.249 179.317 145.183 179.629 144.985C179.941 144.787 180.253 144.522 180.502 144.125L181.313 144.72ZM183.121 144.257C183.433 144.588 183.683 144.853 183.994 145.051C184.306 145.249 184.68 145.316 185.117 145.316C185.553 145.316 185.927 145.183 186.239 144.985C186.551 144.787 186.676 144.522 186.676 144.125C186.676 143.861 186.613 143.662 186.426 143.464C186.302 143.265 185.99 143.133 185.491 142.935C185.304 142.869 184.992 142.736 184.493 142.538C183.994 142.406 183.558 142.207 183.184 141.877C182.747 141.546 182.56 141.083 182.56 140.554C182.56 140.025 182.809 139.562 183.246 139.231C183.683 138.901 184.244 138.702 184.992 138.702C185.242 138.702 185.491 138.702 185.678 138.768C185.865 138.768 186.115 138.834 186.302 138.901C186.489 138.967 186.676 139.033 186.863 139.165C187.05 139.297 187.175 139.43 187.362 139.562L186.801 140.289C186.489 140.025 186.239 139.826 185.99 139.694C185.74 139.562 185.429 139.496 185.054 139.496C184.618 139.496 184.306 139.562 183.994 139.76C183.745 139.959 183.558 140.157 183.558 140.488C183.558 140.818 183.683 141.017 183.932 141.215C184.181 141.414 184.493 141.546 184.867 141.678C185.054 141.744 185.242 141.81 185.429 141.877C185.616 141.943 185.803 142.009 185.99 142.075C186.613 142.273 186.988 142.538 187.237 142.869C187.486 143.199 187.611 143.596 187.611 144.059C187.611 144.654 187.362 145.183 186.863 145.514C186.364 145.911 185.803 146.043 185.117 146.043C184.556 146.043 184.057 145.977 183.683 145.845C183.246 145.712 182.872 145.382 182.435 144.985L183.121 144.257ZM190.043 138.834V143.662C190.043 144.125 190.168 144.522 190.355 144.787C190.604 145.051 190.854 145.183 191.228 145.183C191.727 145.183 192.101 145.117 192.475 144.985C192.849 144.853 193.099 144.654 193.348 144.456V138.901H194.346V145.117C194.346 145.382 194.346 145.712 194.408 146.043H193.411C193.348 145.779 193.348 145.514 193.348 145.316C193.099 145.514 192.849 145.646 192.538 145.779C192.226 145.911 191.976 146.043 191.727 146.043C191.478 146.109 191.29 146.109 191.103 146.109C190.355 146.109 189.856 145.911 189.482 145.448C189.17 145.051 188.983 144.456 188.983 143.795V138.834H190.043ZM196.466 135.594H197.464V144.522C197.464 144.787 197.526 144.985 197.589 145.051C197.714 145.117 197.838 145.183 198.088 145.183C198.15 145.183 198.15 145.183 198.212 145.183C198.275 145.183 198.337 145.183 198.4 145.183L198.524 145.779C198.462 145.845 198.337 145.845 198.275 145.911C198.212 145.977 198.088 145.977 197.963 145.977C197.838 145.977 197.776 146.043 197.651 146.043C197.526 146.043 197.464 146.043 197.339 146.043C197.028 146.043 196.778 145.911 196.591 145.712C196.404 145.514 196.342 145.183 196.342 144.72V135.594H196.466ZM198.898 138.834H199.896V137.049H200.894V138.834H202.515L202.391 139.76H200.832V143.927C200.832 144.324 200.894 144.654 201.019 144.919C201.143 145.183 201.33 145.316 201.642 145.316C201.767 145.316 201.954 145.316 202.203 145.249C202.453 145.183 202.578 145.183 202.64 145.117L202.702 146.043C202.64 146.043 202.453 146.109 202.203 146.109C201.954 146.175 201.705 146.175 201.58 146.175C201.081 146.175 200.644 146.043 200.333 145.779C200.021 145.514 199.896 144.985 199.896 144.257V139.826H198.898V138.834ZM204.137 144.257C204.448 144.588 204.698 144.853 205.01 145.051C205.322 145.249 205.696 145.316 206.132 145.316C206.569 145.316 206.943 145.183 207.255 144.985C207.566 144.787 207.691 144.522 207.691 144.125C207.691 143.861 207.629 143.662 207.442 143.464C207.317 143.265 207.005 143.133 206.506 142.935C206.319 142.869 206.007 142.736 205.509 142.538C205.01 142.406 204.573 142.207 204.199 141.877C203.763 141.546 203.575 141.083 203.575 140.554C203.575 140.025 203.825 139.562 204.261 139.231C204.698 138.901 205.259 138.702 206.007 138.702C206.257 138.702 206.506 138.702 206.693 138.768C206.881 138.768 207.13 138.834 207.317 138.901C207.504 138.967 207.691 139.033 207.878 139.165C208.065 139.297 208.19 139.43 208.377 139.562L207.816 140.289C207.504 140.025 207.255 139.826 207.005 139.694C206.756 139.562 206.444 139.496 206.07 139.496C205.633 139.496 205.322 139.562 205.01 139.76C204.76 139.959 204.573 140.157 204.573 140.488C204.573 140.818 204.698 141.017 204.947 141.215C205.197 141.414 205.509 141.546 205.883 141.678C206.07 141.744 206.257 141.81 206.444 141.877C206.631 141.943 206.818 142.009 207.005 142.075C207.629 142.273 208.003 142.538 208.252 142.869C208.502 143.199 208.627 143.596 208.627 144.059C208.627 144.654 208.377 145.183 207.878 145.514C207.379 145.911 206.818 146.043 206.132 146.043C205.571 146.043 205.072 145.977 204.698 145.845C204.261 145.712 203.887 145.382 203.451 144.985L204.137 144.257Z" fill="white"/>
<path d="M168.155 87.0511H159.424V125.409H168.155V87.0511Z" fill="#181E45"/>
<path fill-rule="evenodd" clip-rule="evenodd" d="M115.896 125.409H93.9449C91.3881 125.409 89.2679 124.946 87.4594 124.086C85.7133 123.227 84.2791 121.97 83.1566 120.317C82.0341 118.663 81.2858 116.679 80.7869 114.232C80.288 111.851 80.0386 109.14 80.0386 106.098V86.9849H88.769V110.264C88.769 115.158 91.3881 117.605 96.6888 117.605H115.896V125.409Z" fill="#51A8B1"/>
<path fill-rule="evenodd" clip-rule="evenodd" d="M135.539 83.0165C110.595 97.6322 73.1789 68.0701 79.0407 55.9014C84.5908 48.362 111.094 60.7292 116.893 67.8056L135.539 83.0165Z" fill="#181E45"/>
<path fill-rule="evenodd" clip-rule="evenodd" d="M135.539 83.0166C110.595 97.6323 73.1787 68.0702 79.0406 55.9014C89.33 47.3701 77.6063 83.2811 135.539 83.0166Z" fill="#0D112B"/>
<path fill-rule="evenodd" clip-rule="evenodd" d="M118.766 76.2049L107.666 71.7739L119.327 83.2813L125.937 81.165L124.628 75.8081L118.766 76.2049Z" fill="#0D112B"/>
<path fill-rule="evenodd" clip-rule="evenodd" d="M106.792 80.2391C106.48 79.7101 105.981 79.2471 105.357 78.9826C103.861 78.3874 102.177 79.2471 101.616 80.9005C101.054 82.5539 101.74 84.3395 103.237 84.9347C104.235 85.3315 105.357 85.067 106.106 84.3395C110.97 83.5459 113.215 84.2072 113.527 85.9928C113.776 88.1753 111.282 89.5641 107.54 90.49C107.478 90.4239 107.353 90.4239 107.291 90.3577C105.794 89.7625 104.11 90.6223 103.549 92.2756C102.988 93.929 103.674 95.7146 105.17 96.3098C106.667 96.905 108.351 96.0453 108.912 94.3919C108.974 94.2597 109.037 94.0613 109.037 93.929C112.155 90.8868 114.4 90.49 115.959 91.8788C116.146 94.3919 115.21 96.2437 113.527 97.5002C112.217 97.368 110.97 98.1616 110.471 99.5504C109.91 101.204 110.596 102.989 112.092 103.585C113.589 104.18 115.273 103.32 115.834 101.667C116.021 101.138 116.083 100.609 116.021 100.08L116.146 100.146C120.012 94.5903 123.317 91.6143 126.622 89.2996C126.497 89.2996 126.373 89.2996 126.373 89.2996C128.929 86.8526 129.865 84.604 127.495 82.5539V82.6861C123.13 78.189 109.66 79.0487 106.792 80.2391Z" fill="#FFCC29"/>
<path fill-rule="evenodd" clip-rule="evenodd" d="M126.061 82.5538C126.435 82.8184 126.747 83.0829 127.121 83.2813L128.056 83.2152C127.869 83.0168 127.682 82.8184 127.433 82.62V82.7522L126.061 82.5538Z" fill="#E0B403"/>
<path fill-rule="evenodd" clip-rule="evenodd" d="M111.033 102.923C111.345 103.254 111.657 103.518 112.093 103.717C113.59 104.312 115.274 103.452 115.835 101.799C116.022 101.27 116.084 100.741 116.022 100.212L116.147 100.278C120.013 94.7226 123.318 91.7465 126.623 89.4318C126.498 89.4318 126.374 89.4318 126.374 89.4318C127.558 88.3076 128.432 87.1833 128.743 86.1251H127.87C123.256 88.9689 119.015 91.7465 113.715 99.352L113.59 99.2859C113.652 99.8149 113.59 100.344 113.403 100.873C112.966 101.931 112.031 102.725 111.033 102.923Z" fill="#E0B403"/>
<path fill-rule="evenodd" clip-rule="evenodd" d="M104.173 95.5824C104.484 95.913 104.796 96.1776 105.233 96.376C106.729 96.9712 108.413 96.1114 108.974 94.4581C109.037 94.3258 109.099 94.1274 109.099 93.9951C110.845 92.3418 112.342 91.4159 113.527 91.2175C113.527 91.1513 113.527 91.0852 113.527 91.0191C111.968 89.6302 109.723 90.0271 106.605 93.0693C106.542 93.2015 106.542 93.3999 106.48 93.5322C106.106 94.6565 105.17 95.384 104.173 95.5824Z" fill="#E0B403"/>
<path fill-rule="evenodd" clip-rule="evenodd" d="M106.169 84.3394C107.977 84.0088 109.474 83.9426 110.596 84.0749C109.661 83.0829 107.478 82.8183 103.674 83.4135C103.238 83.8103 102.739 84.0749 102.24 84.141C102.552 84.4717 102.864 84.7362 103.3 84.9346C104.298 85.3314 105.358 85.0669 106.169 84.3394Z" fill="#E0B403"/>
<path fill-rule="evenodd" clip-rule="evenodd" d="M148.574 36.7224L159.611 32.6221L161.669 21.776L163.665 22.1729L164.101 32.8866C164.101 35.7304 163.852 37.1192 162.729 38.1113L151.13 50.9413L148.574 36.7224Z" fill="#51A8B1"/>
<path fill-rule="evenodd" clip-rule="evenodd" d="M163.291 75.6099C163.478 75.0147 163.914 74.4856 164.475 74.0888C165.847 73.2291 167.656 73.7582 168.466 75.2792C169.34 76.8003 168.903 78.7182 167.531 79.578C166.596 80.1732 165.473 80.1071 164.6 79.5119C159.674 79.6441 157.616 80.7023 157.553 82.554C157.678 84.7365 160.297 85.6624 164.164 85.8608C164.226 85.7946 164.288 85.7285 164.413 85.6624C165.785 84.8026 167.593 85.3317 168.404 86.8528C169.277 88.3739 168.841 90.2918 167.469 91.1515C166.097 92.0113 164.288 91.4822 163.478 89.9611C163.415 89.8288 163.353 89.6966 163.291 89.5643C159.736 87.1835 157.491 87.1835 156.119 88.8368C156.369 91.3499 157.553 92.9372 159.424 93.863C160.671 93.4662 162.106 94.0614 162.792 95.318C163.665 96.8391 163.228 98.757 161.856 99.6167C160.484 100.476 158.676 99.9474 157.865 98.4263C157.616 97.9634 157.429 97.4343 157.429 96.9052L157.304 96.9714C152.565 92.2097 148.823 89.895 145.206 88.2416C145.331 88.2416 145.456 88.1755 145.456 88.1755C142.525 86.2576 141.215 84.2074 143.273 81.7604L143.335 81.8927C146.827 76.6681 160.297 75.0808 163.291 75.6099Z" fill="#FFCC29"/>
<path fill-rule="evenodd" clip-rule="evenodd" d="M144.707 81.4959C144.395 81.8265 144.083 82.0911 143.772 82.4217L142.836 82.554C142.961 82.3556 143.148 82.0911 143.335 81.8927L143.397 82.0249L144.707 81.4959Z" fill="#E0B403"/>
<path fill-rule="evenodd" clip-rule="evenodd" d="M162.792 98.7568C162.542 99.1536 162.231 99.4843 161.856 99.7488C160.485 100.609 158.676 100.08 157.865 98.5584C157.616 98.0955 157.429 97.5664 157.429 97.0373L157.304 97.1035C152.565 92.3418 148.823 90.0271 145.206 88.3737C145.331 88.3737 145.456 88.3076 145.456 88.3076C144.084 87.3817 143.086 86.4558 142.587 85.4638L143.46 85.2654C148.449 87.2494 153.064 89.1673 159.612 95.6485L159.736 95.5824C159.736 96.1114 159.923 96.6405 160.173 97.1035C160.796 98.1616 161.794 98.7568 162.792 98.7568Z" fill="#E0B403"/>
<path fill-rule="evenodd" clip-rule="evenodd" d="M168.404 90.2917C168.155 90.6885 167.843 91.0191 167.469 91.2837C166.097 92.1434 164.288 91.6143 163.478 90.0933C163.415 89.961 163.353 89.8287 163.29 89.6964C161.295 88.3738 159.736 87.7785 158.489 87.7785C158.489 87.7124 158.489 87.6463 158.489 87.5801C159.798 85.9268 162.043 85.9268 165.66 88.3076C165.722 88.4399 165.785 88.5722 165.847 88.7044C166.346 89.6964 167.344 90.2917 168.404 90.2917Z" fill="#E0B403"/>
<path fill-rule="evenodd" clip-rule="evenodd" d="M164.6 79.5781C162.729 79.6442 161.295 79.7765 160.172 80.1071C160.983 78.9829 163.041 78.2554 166.845 78.1892C167.344 78.5199 167.843 78.6522 168.404 78.6522C168.154 79.049 167.843 79.3797 167.469 79.6442C166.595 80.2394 165.473 80.1733 164.6 79.5781Z" fill="#E0B403"/>
<path fill-rule="evenodd" clip-rule="evenodd" d="M150.818 41.5504L161.481 34.6724L161.793 22.9004L163.602 22.8343L164.038 34.9369C163.851 36.7887 163.539 37.7146 162.292 38.5082L152.439 49.2881L150.818 41.5504Z" fill="#37767D"/>
<path fill-rule="evenodd" clip-rule="evenodd" d="M136.601 82.9509C164.788 87.5141 190.106 46.1139 180.689 36.789C173.019 31.7628 152.191 53.0581 149.135 61.7878L136.601 82.9509Z" fill="#181E45"/>
<path fill-rule="evenodd" clip-rule="evenodd" d="M136.601 82.9505C164.788 87.5138 190.106 46.1136 180.69 36.7886C168.093 32.6222 191.041 62.052 136.601 82.9505Z" fill="#0D112B"/>
<path fill-rule="evenodd" clip-rule="evenodd" d="M150.07 70.4514L158.987 62.1846L151.878 77.3294L144.956 77.7262L144.395 72.237L150.07 70.4514Z" fill="#0D112B"/>
<path fill-rule="evenodd" clip-rule="evenodd" d="M110.533 69.9882C118.765 85.7944 135.228 90.6222 138.72 89.3656C142.337 88.572 154.747 77.0646 154.31 59.0099C154.248 57.4227 151.94 46.0475 151.94 46.0475C149.259 29.3817 138.658 28.059 135.914 25.0168C130.052 18.4033 125.687 20.0567 122.195 27.2653C117.081 21.3794 116.021 25.9427 111.406 30.9689C101.429 42.0133 103.175 55.8355 110.533 69.9882Z" fill="#5CC6D0"/>
<path fill-rule="evenodd" clip-rule="evenodd" d="M107.291 60.5972C107.915 63.9039 109.287 66.9461 110.534 69.9883C118.641 89.8948 133.545 88.1753 137.037 86.9187C139.469 86.3896 157.99 80.8343 153.937 56.0339C153.562 54.0499 153.251 52.5288 153.126 51.9335C153.064 51.6029 152.627 46.4444 151.816 45.0556C150.819 43.2038 149.447 45.0556 149.571 45.6508L150.32 49.4866C156.618 74.5516 127.122 86.588 119.389 65.9541C114.4 64.8959 103.113 56.0339 107.167 50.3463L121.073 54.8435C105.982 51.4045 108.164 27.7945 114.899 23.2312C109.91 24.5539 108.85 30.1092 108.601 32.2916C103.924 42.8731 102.552 53.8514 107.291 60.5972Z" fill="#51A8B1"/>
<path fill-rule="evenodd" clip-rule="evenodd" d="M153.749 69.6575C150.755 80.239 141.588 85.7943 132.733 85.7943C126.934 85.2652 119.825 80.1068 118.141 73.7578C119.7 73.8901 121.695 73.824 124.065 73.4933C120.635 72.5013 119.014 70.9802 117.954 68.8639C120.76 70.7818 125.998 71.6415 133.606 68.2687C123.192 69.4591 113.152 65.0281 107.477 50.4785L112.03 54.5788C103.798 50.2139 106.729 36.2596 109.473 31.6963C109.286 31.1011 111.094 23.4295 116.769 22.6358C110.969 22.8343 109.036 29.2493 108.537 32.2915C103.362 37.5823 101.678 49.5526 105.794 59.0098C107.041 63.7054 108.163 66.6814 110.595 70.5172C118.577 90.4899 145.33 102.989 153.749 69.6575Z" fill="#37767D"/>
<path fill-rule="evenodd" clip-rule="evenodd" d="M108.975 32.8867C112.779 20.6518 118.891 19.8582 122.133 27.5298L110.285 36.3918L108.975 32.8867Z" fill="#51A8B1"/>
<path fill-rule="evenodd" clip-rule="evenodd" d="M151.94 46.0476C150.631 33.945 141.464 27.7945 137.909 25.612C128.618 16.6839 123.629 19.9906 122.319 26.9347C122.943 23.5619 138.907 19.197 143.397 37.9131C146.079 48.8252 150.631 47.1719 151.94 46.0476Z" fill="#51A8B1"/>
<path fill-rule="evenodd" clip-rule="evenodd" d="M128.805 22.768C132.235 21.4453 136.164 24.4875 137.598 29.5799C139.032 34.6061 137.349 39.7646 133.919 41.0873C130.489 42.41 126.56 39.3678 125.126 34.2754C123.692 29.2492 125.375 24.0907 128.805 22.768Z" fill="#51A8B1"/>
<path fill-rule="evenodd" clip-rule="evenodd" d="M140.466 38.2439C139.094 35.9953 144.332 35.4001 142.711 38.2439L142.087 52.1321L142.025 52.3305C140.092 57.0261 136.35 60.9941 131.174 62.8459C126.435 64.4993 121.571 63.9702 117.455 61.92L117.268 61.8539L107.54 50.5449C105.482 49.6851 108.288 47.0398 109.348 49.0899L110.097 49.8174C111.905 51.6692 114.649 52.6612 117.393 52.9919C120.76 53.3887 124.315 52.8596 127.62 51.7353C130.863 50.611 133.981 48.7593 136.413 46.3784C138.408 44.3944 139.967 41.9474 140.341 39.3682L140.466 38.2439Z" fill="#37767D"/>
<path fill-rule="evenodd" clip-rule="evenodd" d="M131.61 60.531C136.163 58.9438 139.53 55.4387 141.338 51.0738L141.9 38.8389C141.151 43.9313 136.038 49.2221 128.804 51.7352C121.508 54.3144 114.337 53.2563 110.72 49.6189L119.325 59.6052C123.067 61.5892 127.432 61.986 131.61 60.531Z" fill="#373435"/>
<path fill-rule="evenodd" clip-rule="evenodd" d="M131.924 61.523C127.372 63.1102 122.632 62.6473 118.704 60.5971L118.517 60.531L109.163 49.6188C107.167 48.8251 109.911 46.1798 110.909 48.2299L111.595 48.9574C113.341 50.743 115.96 51.7351 118.579 52.0657C121.822 52.4625 125.252 51.9335 128.432 50.8753C131.55 49.751 134.606 48.0315 136.913 45.7168C138.846 43.7989 140.343 41.4181 140.717 38.905L140.842 37.913C139.532 35.7305 144.583 35.2014 143.024 37.913L142.401 51.2721L142.338 51.4705C140.53 55.9015 136.913 59.8035 131.924 61.523Z" fill="#FFCC29"/>
<path fill-rule="evenodd" clip-rule="evenodd" d="M131.61 60.531C136.163 58.9438 139.53 55.4387 141.338 51.0738L141.9 38.8389C141.151 43.9313 136.038 49.2221 128.804 51.7352C121.508 54.3144 114.337 53.2563 110.72 49.6189L119.325 59.6052C123.067 61.5892 127.432 61.986 131.61 60.531ZM118.39 55.9678C121.196 57.1582 125.25 56.8275 129.365 55.4387C131.486 54.7112 133.606 53.6531 135.601 52.3304C137.347 51.14 139.031 49.7511 140.403 48.23L141.027 48.693C137.971 52.0658 133.793 54.7112 129.615 56.1662C125.312 57.6873 121.071 57.9518 118.016 56.6952L118.39 55.9678Z" fill="#FEFEFE"/>
<path fill-rule="evenodd" clip-rule="evenodd" d="M110.72 49.685C113.089 52.4626 117.143 54.1821 118.702 56.2323C119.7 57.4889 119.45 58.547 119.325 59.6713L110.72 49.685Z" fill="#373435"/>
<path fill-rule="evenodd" clip-rule="evenodd" d="M141.839 38.9049C141.091 43.7327 137.973 49.6848 141.278 51.1398L141.839 38.9049Z" fill="#373435"/>
<path fill-rule="evenodd" clip-rule="evenodd" d="M118.391 55.9676C121.197 57.158 125.25 56.8274 129.366 55.4385C130.925 54.9095 132.484 54.182 133.918 53.3222L135.228 51.9334L136.662 51.6027C138.034 50.6107 139.281 49.4864 140.404 48.2299L141.027 48.6928C137.972 52.0657 133.794 54.7111 129.616 56.166C125.313 57.6871 121.072 57.9517 118.017 56.6951L118.391 55.9676Z" fill="#373435"/>
<path d="M123.494 37.1555C124.235 32.1765 121.858 27.6414 118.183 27.0261C114.509 26.4107 110.93 29.9481 110.188 34.927C109.447 39.906 111.824 44.4411 115.498 45.0565C119.173 45.6719 122.752 42.1345 123.494 37.1555Z" fill="#51A8B1"/>
<path fill-rule="evenodd" clip-rule="evenodd" d="M114.898 30.1094C117.829 29.2497 120.823 31.1014 121.633 34.2098C122.444 37.3181 120.698 40.4925 117.767 41.3523C114.836 42.212 111.843 40.3603 111.032 37.2519C110.221 34.0775 111.967 30.903 114.898 30.1094Z" fill="white"/>
<path fill-rule="evenodd" clip-rule="evenodd" d="M115.397 30.1756C117.767 29.5142 120.137 30.9692 120.76 33.4823C121.384 35.9954 120.012 38.5085 117.642 39.1699C115.272 39.8312 112.903 38.3763 112.279 35.8632C111.656 33.4162 113.028 30.8369 115.397 30.1756Z" fill="#FEFEFE"/>
<path fill-rule="evenodd" clip-rule="evenodd" d="M115.211 31.4318C117.394 30.7705 119.701 32.1593 120.262 34.5402C120.886 36.8549 119.576 39.3018 117.331 39.8971C115.149 40.5584 112.842 39.1696 112.28 36.7887C111.719 34.474 113.029 32.0932 115.211 31.4318Z" fill="#FFCC29" stroke="#E0B403" stroke-width="1.0001" stroke-miterlimit="2.6131"/>
<path fill-rule="evenodd" clip-rule="evenodd" d="M115.584 32.7548C117.08 32.2919 118.639 33.2839 119.076 34.8711C119.512 36.4583 118.577 38.1117 117.08 38.5746C115.584 39.0376 114.025 38.0456 113.588 36.4583C113.152 34.8711 114.025 33.2177 115.584 32.7548Z" fill="black" stroke="#333333" stroke-width="1.0001" stroke-miterlimit="2.6131"/>
<path fill-rule="evenodd" clip-rule="evenodd" d="M116.957 32.3576C117.705 32.1592 118.516 32.6221 118.703 33.4157C118.89 34.2094 118.453 35.0691 117.705 35.2675C116.957 35.4659 116.146 35.003 115.959 34.2094C115.71 33.4157 116.146 32.6221 116.957 32.3576Z" fill="#FEFEFE"/>
<path fill-rule="evenodd" clip-rule="evenodd" d="M111.22 29.646C112.529 27.5296 114.026 25.6117 116.957 25.0827L119.576 27.3312C116.395 26.5376 113.589 27.3312 111.22 29.646Z" fill="#0D112B"/>
<path fill-rule="evenodd" clip-rule="evenodd" d="M133.793 23.4957C131.673 22.3714 129.428 21.5778 126.684 22.636L125.499 26.0088C127.931 23.628 130.675 22.7682 133.793 23.4957Z" fill="#0D112B"/>
<path fill-rule="evenodd" clip-rule="evenodd" d="M130.053 25.6778C132.984 24.8181 135.977 26.6699 136.788 29.7782C137.598 32.8865 135.852 36.0609 132.921 36.9207C129.99 37.7804 126.997 35.9287 126.186 32.8204C125.438 29.712 127.184 26.5376 130.053 25.6778Z" fill="white"/>
<path fill-rule="evenodd" clip-rule="evenodd" d="M130.613 25.8105C132.983 25.1492 135.353 26.6041 135.976 29.1172C136.6 31.6303 135.228 34.1435 132.858 34.8048C130.489 35.4661 128.119 34.0112 127.495 31.4981C126.872 29.0511 128.244 26.4719 130.613 25.8105Z" fill="#FEFEFE"/>
<path fill-rule="evenodd" clip-rule="evenodd" d="M130.426 27.067C132.609 26.4056 134.916 27.7944 135.478 30.1753C136.101 32.49 134.792 34.937 132.547 35.5322C130.364 36.1935 128.057 34.8047 127.495 32.4239C126.934 30.1092 128.244 27.6622 130.426 27.067Z" fill="#FFCC29" stroke="#E0B403" stroke-width="1.0001" stroke-miterlimit="2.6131"/>
<path fill-rule="evenodd" clip-rule="evenodd" d="M130.738 28.3897C132.235 27.9268 133.794 28.9188 134.231 30.506C134.667 32.0933 133.732 33.7466 132.235 34.2096C130.738 34.6725 129.179 33.6805 128.743 32.0933C128.369 30.506 129.242 28.8527 130.738 28.3897Z" fill="black" stroke="#333333" stroke-width="1.0001" stroke-miterlimit="2.6131"/>
<path fill-rule="evenodd" clip-rule="evenodd" d="M132.11 27.9928C132.859 27.7944 133.669 28.2573 133.857 29.0509C134.044 29.8445 133.607 30.7043 132.859 30.9027C132.11 31.1011 131.3 30.6382 131.113 29.8445C130.926 29.0509 131.362 28.1912 132.11 27.9928Z" fill="#FEFEFE"/>
<path fill-rule="evenodd" clip-rule="evenodd" d="M110.908 34.7386C111.345 27.5299 118.329 26.4056 120.823 31.8286C117.518 29.9107 113.839 32.0932 110.908 34.7386Z" fill="#37767D"/>
<path fill-rule="evenodd" clip-rule="evenodd" d="M122.07 36.3919C121.509 43.6667 114.088 44.8571 111.594 39.434C115.023 41.3519 118.952 39.1034 122.07 36.3919Z" fill="#37767D"/>
<path fill-rule="evenodd" clip-rule="evenodd" d="M135.666 27.5961C131.862 21.5778 125.252 24.4216 125.751 30.4398C127.621 27.0008 131.862 26.9347 135.666 27.5961Z" fill="#37767D"/>
<path fill-rule="evenodd" clip-rule="evenodd" d="M126.81 35.0031C130.738 40.9552 137.723 38.0453 137.348 32.027C135.291 35.5322 130.801 35.6644 126.81 35.0031Z" fill="#37767D"/>
<path fill-rule="evenodd" clip-rule="evenodd" d="M124.876 47.767C125.188 47.7008 125.437 47.8331 125.562 48.1638C125.624 48.4944 125.5 48.759 125.188 48.8912C124.876 48.9574 124.626 48.8251 124.502 48.4944C124.439 48.1638 124.564 47.8992 124.876 47.767Z" fill="#2A3304"/>
<path fill-rule="evenodd" clip-rule="evenodd" d="M129.927 46.3122C130.239 46.246 130.488 46.3783 130.613 46.709C130.675 47.0396 130.551 47.3042 130.239 47.4364C129.927 47.5026 129.678 47.3703 129.553 47.0396C129.49 46.709 129.678 46.4444 129.927 46.3122Z" fill="#2A3304"/>
<path fill-rule="evenodd" clip-rule="evenodd" d="M161.171 22.636C159.612 18.8663 156.619 16.0886 153.127 16.5516C152.878 16.8161 152.566 16.9484 152.192 17.0807C151.007 17.4113 149.822 16.6839 149.51 15.4934C149.198 14.303 149.947 13.0465 151.131 12.7158C152.254 12.4512 153.376 13.0465 153.751 14.1046C155.559 15.758 157.492 15.758 159.55 14.6337C160.984 11.4592 160.984 7.9541 160.423 4.51511C160.049 4.25057 159.8 3.78763 159.675 3.32469C159.363 2.13426 160.111 0.877711 161.296 0.547038C162.481 0.216366 163.666 0.943845 163.978 2.13427C164.165 2.92788 163.915 3.78763 163.292 4.3167C162.294 8.02023 162.606 9.872 163.791 10.2688C165.287 10.6656 166.472 8.87998 167.407 6.0362C167.407 5.97007 167.345 5.90393 167.345 5.8378C167.033 4.64738 167.782 3.39082 168.966 3.06015C170.151 2.72948 171.336 3.45695 171.648 4.64738C171.96 5.8378 171.211 7.09435 170.027 7.42502C169.902 7.42502 169.84 7.49116 169.715 7.49116C167.345 9.6736 166.846 11.3931 167.719 12.7158C169.465 13.0465 170.775 12.5174 171.835 11.327C171.835 10.3349 172.521 9.34292 173.519 9.07839C174.704 8.74771 175.888 9.47519 176.2 10.6656C176.512 11.856 175.764 13.1126 174.579 13.4433C174.205 13.5755 173.831 13.5094 173.456 13.4433V13.5094C167.719 17.0145 165.412 20.0567 163.042 23.4296C161.92 22.9666 162.232 23.0989 161.171 22.636Z" fill="#FFCC29"/>
<path fill-rule="evenodd" clip-rule="evenodd" d="M160.61 21.5117C158.926 18.3373 156.245 16.221 153.127 16.6178C152.877 16.8823 152.565 17.0146 152.191 17.1469C151.006 17.4775 149.821 16.75 149.51 15.5596C149.447 15.1628 149.447 14.766 149.51 14.4353C150.008 15.0967 150.882 15.3612 151.755 15.1628C152.129 15.0967 152.441 14.8983 152.69 14.6337C153.251 14.5676 153.812 14.5676 154.311 14.6337C155.06 15.1628 155.808 15.4274 156.556 15.4274C158.302 16.4855 159.799 18.4034 160.734 20.652L160.61 21.5117Z" fill="#E0B403"/>
<path fill-rule="evenodd" clip-rule="evenodd" d="M175.701 9.80609C175.888 10.0706 176.075 10.3352 176.137 10.732C176.449 11.9224 175.701 13.179 174.516 13.5096C174.142 13.6419 173.767 13.5758 173.393 13.5096V13.5758C167.906 16.9486 165.536 19.8585 163.291 23.0991L162.979 23.4959L162.418 23.2314L162.543 21.4458C164.912 18.0729 167.22 15.0307 172.957 11.5256V11.4595C173.331 11.5256 173.705 11.5917 174.079 11.4595C174.89 11.1949 175.513 10.5336 175.701 9.80609Z" fill="#E0B403"/>
<path fill-rule="evenodd" clip-rule="evenodd" d="M171.273 3.78745C171.46 4.05198 171.647 4.31652 171.709 4.71333C172.021 5.90375 171.273 7.1603 170.088 7.49098C169.963 7.49098 169.901 7.55711 169.776 7.55711C168.466 8.74753 167.718 9.87182 167.469 10.7977C167.406 10.7977 167.344 10.7977 167.344 10.7977C166.533 9.47501 166.97 7.75551 169.34 5.57308C169.464 5.57308 169.527 5.57308 169.651 5.50694C170.462 5.17627 171.023 4.58106 171.273 3.78745Z" fill="#E0B403"/>
<path fill-rule="evenodd" clip-rule="evenodd" d="M163.29 4.31681C162.916 5.70564 162.729 6.82993 162.729 7.75581C162.106 6.89606 162.106 5.17656 162.916 2.33278C163.228 2.06824 163.415 1.67143 163.54 1.27463C163.727 1.53917 163.914 1.8037 163.976 2.20051C164.163 2.99412 163.852 3.78774 163.29 4.31681Z" fill="#E0B403"/>
<path fill-rule="evenodd" clip-rule="evenodd" d="M91.4508 80.2391L105.232 40.4922L107.166 60.2003L94.5065 82.6199L91.4508 80.2391Z" fill="#37767D"/>
<path fill-rule="evenodd" clip-rule="evenodd" d="M98.7485 86.8527C98.9979 86.7205 99.3097 86.5882 99.6215 86.5882C100.619 86.5221 101.492 87.3157 101.555 88.3077C101.617 89.2997 100.869 90.1595 99.8709 90.2256C98.9355 90.2917 98.1249 89.6304 98.0001 88.7045C96.7529 87.1173 95.1939 86.7866 93.4479 87.3818C91.8265 89.6965 91.39 92.5403 91.39 95.3841C91.6394 95.6486 91.8265 96.0454 91.8265 96.4422C91.8888 97.4343 91.1405 98.294 90.1428 98.3601C89.145 98.4263 88.272 97.6327 88.2096 96.6406C88.1472 95.9793 88.5214 95.3179 89.0203 94.9873C90.3298 92.1435 90.3298 90.6885 89.4568 90.1595C88.272 89.6304 87.1495 90.8869 85.9646 93.0032C85.9646 93.0694 85.9646 93.1355 85.9646 93.2016C86.027 94.1937 85.2787 95.0534 84.2809 95.1195C83.2831 95.1857 82.4101 94.3921 82.3477 93.4C82.2854 92.408 83.0337 91.5483 84.0315 91.4822C84.0938 91.4822 84.2185 91.4822 84.2809 91.4822C86.4635 90.0933 87.0871 88.8368 86.6506 87.5802C85.2787 86.985 84.1562 87.2495 83.1584 88.1093C83.0337 88.9029 82.3477 89.5642 81.4747 89.6304C80.4769 89.6965 79.6039 88.9029 79.5415 87.9109C79.4792 86.9189 80.2275 86.0591 81.2252 85.993C81.537 85.993 81.8489 86.0591 82.0983 86.1914V86.1253C87.2118 84.2074 89.4568 82.091 91.8265 79.7763C96.1917 77.9907 92.6372 86.3237 98.7485 86.8527Z" fill="#FFCC00"/>
<path fill-rule="evenodd" clip-rule="evenodd" d="M79.665 88.7708C79.5403 88.5063 79.478 88.2417 79.4156 87.9772C79.3532 86.9852 80.1016 86.1254 81.0993 86.0593C81.4111 86.0593 81.7229 86.1254 81.9724 86.2577V86.1916C86.8365 84.3398 89.1438 82.3558 91.3887 80.1733L91.7005 79.9088C92.6359 79.7104 91.7629 80.4379 91.0769 81.5622C88.7073 83.8769 87.0859 85.9932 82.0347 87.9111V87.9772C81.7853 87.8449 81.4735 87.7788 81.1617 87.7788C80.5381 87.7127 79.9768 88.1756 79.665 88.7708Z" fill="#E0B403"/>
<path fill-rule="evenodd" clip-rule="evenodd" d="M82.4092 94.2599C82.2845 93.9954 82.2221 93.7308 82.1598 93.4663C82.0974 92.4743 82.8457 91.6145 83.8435 91.5484C83.9058 91.5484 84.0306 91.5484 84.0929 91.5484C85.3401 90.7548 86.0261 90.0273 86.4002 89.2998C86.4626 89.2998 86.4626 89.2998 86.525 89.366C87.0238 90.5564 86.4002 91.8791 84.1553 93.2679C84.0929 93.2679 83.9682 93.2679 83.9058 93.2679C83.2822 93.2679 82.721 93.6647 82.4092 94.2599Z" fill="#E0B403"/>
<path fill-rule="evenodd" clip-rule="evenodd" d="M88.8943 95.0534C89.3932 93.9952 89.705 93.1355 89.8297 92.408C90.2039 93.2016 89.9544 94.5904 88.9567 96.7729C88.6449 96.9713 88.4578 97.2358 88.2707 97.5665C88.146 97.3019 88.0836 97.0374 88.0213 96.7729C88.0213 96.0454 88.3331 95.384 88.8943 95.0534Z" fill="#E0B403"/>
<path fill-rule="evenodd" clip-rule="evenodd" d="M147.014 71.7739C148.074 71.5093 149.134 72.2368 149.321 73.4272C149.571 74.5515 148.885 75.6758 147.824 75.9404C146.764 76.2049 145.704 75.4774 145.517 74.287C145.268 73.0966 145.954 71.9723 147.014 71.7739Z" fill="#181E45"/>
<path fill-rule="evenodd" clip-rule="evenodd" d="M143.834 74.5515C144.271 74.4854 144.645 74.7499 144.769 75.2129C144.832 75.6758 144.582 76.0726 144.146 76.2049C143.709 76.271 143.335 76.0065 143.21 75.5436C143.21 75.0806 143.46 74.6838 143.834 74.5515Z" fill="#181E45"/>
<path fill-rule="evenodd" clip-rule="evenodd" d="M143.585 70.848C144.208 70.7157 144.894 71.1787 145.019 71.84C145.144 72.5013 144.707 73.2288 144.084 73.3611C143.46 73.4934 142.774 73.0304 142.649 72.3691C142.525 71.6416 142.899 70.9803 143.585 70.848Z" fill="#181E45"/>
<path fill-rule="evenodd" clip-rule="evenodd" d="M146.079 76.4693C146.516 76.4031 146.89 76.6677 147.015 77.1306C147.077 77.5935 146.828 77.9903 146.391 78.1226C145.955 78.1888 145.58 77.9242 145.456 77.4613C145.393 76.9983 145.643 76.5354 146.079 76.4693Z" fill="#181E45"/>
<path fill-rule="evenodd" clip-rule="evenodd" d="M146.204 70.3187C146.391 70.2526 146.578 70.3848 146.64 70.6494C146.703 70.8478 146.578 71.0462 146.329 71.1123C146.142 71.1784 145.954 71.0462 145.892 70.7816C145.892 70.5832 146.017 70.3848 146.204 70.3187Z" fill="#181E45"/>
<path fill-rule="evenodd" clip-rule="evenodd" d="M119.512 86.7863C120.323 86.8525 120.884 87.5799 120.822 88.3736C120.759 89.2333 120.073 89.8285 119.325 89.7624C118.514 89.6962 117.953 88.9688 118.015 88.1752C118.078 87.3815 118.764 86.7202 119.512 86.7863Z" fill="#FFF688"/>
<path fill-rule="evenodd" clip-rule="evenodd" d="M116.832 88.1088C117.144 88.1088 117.393 88.4395 117.331 88.704C117.331 89.0347 117.019 89.2993 116.769 89.2331C116.458 89.2331 116.208 88.9025 116.271 88.6379C116.271 88.3734 116.52 88.1088 116.832 88.1088Z" fill="#FFF688"/>
<path fill-rule="evenodd" clip-rule="evenodd" d="M117.332 85.4638C117.83 85.5299 118.142 85.9267 118.142 86.4558C118.08 86.9849 117.706 87.3817 117.207 87.3156C116.708 87.2494 116.396 86.8526 116.396 86.3236C116.459 85.7945 116.833 85.4638 117.332 85.4638Z" fill="#FFF688"/>
<path fill-rule="evenodd" clip-rule="evenodd" d="M118.017 89.8948C118.329 89.8948 118.579 90.2255 118.516 90.49C118.516 90.8207 118.204 91.0852 117.955 91.0191C117.643 91.0191 117.394 90.6884 117.456 90.4239C117.456 90.0932 117.705 89.8287 118.017 89.8948Z" fill="#FFF688"/>
<path fill-rule="evenodd" clip-rule="evenodd" d="M119.264 85.6625C119.388 85.6625 119.513 85.7948 119.513 85.9932C119.513 86.1254 119.388 86.2577 119.201 86.2577C119.077 86.2577 118.952 86.1254 118.952 85.927C118.952 85.7947 119.077 85.6625 119.264 85.6625Z" fill="#FFF688"/>
<path fill-rule="evenodd" clip-rule="evenodd" d="M163.227 16.0222C162.603 16.1545 162.042 15.7577 161.917 15.0963C161.793 14.435 162.167 13.8398 162.791 13.7075C163.414 13.5752 163.975 13.9721 164.1 14.6334C164.225 15.2947 163.851 15.89 163.227 16.0222Z" fill="#FFF688"/>
<path fill-rule="evenodd" clip-rule="evenodd" d="M164.974 14.4353C164.725 14.5014 164.538 14.303 164.476 14.1046C164.413 13.8401 164.6 13.6417 164.787 13.5755C165.037 13.5094 165.224 13.7078 165.286 13.9062C165.349 14.1708 165.224 14.4353 164.974 14.4353Z" fill="#FFF688"/>
<path fill-rule="evenodd" clip-rule="evenodd" d="M165.161 16.5515C164.786 16.6177 164.475 16.3531 164.35 16.0224C164.287 15.6256 164.537 15.2288 164.849 15.1627C165.223 15.0966 165.535 15.3611 165.659 15.6918C165.722 16.0886 165.472 16.4854 165.161 16.5515Z" fill="#FFF688"/>
<path fill-rule="evenodd" clip-rule="evenodd" d="M163.725 13.4431C163.476 13.5092 163.289 13.3108 163.227 13.1124C163.164 12.8479 163.351 12.6495 163.538 12.5833C163.788 12.5172 163.975 12.7156 164.037 12.914C164.162 13.1124 163.975 13.377 163.725 13.4431Z" fill="#FFF688"/>
<path fill-rule="evenodd" clip-rule="evenodd" d="M163.662 16.8158C163.538 16.8158 163.413 16.7497 163.413 16.6174C163.413 16.4851 163.475 16.3529 163.6 16.3529C163.725 16.3529 163.85 16.419 163.85 16.5513C163.85 16.6835 163.787 16.8158 163.662 16.8158Z" fill="#FFF688"/>
<path fill-rule="evenodd" clip-rule="evenodd" d="M91.3261 58.2164C92.3862 57.9519 93.4464 58.6794 93.6334 59.8037C93.8829 60.928 93.1969 62.0522 92.1368 62.2506C91.0767 62.5152 90.0166 61.7877 89.8295 60.6634C89.6424 59.5391 90.266 58.481 91.3261 58.2164Z" fill="#51A8B1"/>
<path fill-rule="evenodd" clip-rule="evenodd" d="M88.208 61.0601C88.6445 60.994 89.0187 61.2585 89.081 61.7215C89.1434 62.1844 88.8939 62.5812 88.5198 62.6473C88.0833 62.7135 87.7091 62.4489 87.6467 62.0521C87.5844 61.5231 87.8338 61.1263 88.208 61.0601Z" fill="#51A8B1"/>
<path fill-rule="evenodd" clip-rule="evenodd" d="M87.9587 57.3566C88.5823 57.2244 89.2683 57.6873 89.393 58.3486C89.5177 59.01 89.1435 59.7375 88.4576 59.8697C87.834 60.002 87.148 59.5391 87.0233 58.8777C86.8986 58.1502 87.3351 57.4889 87.9587 57.3566Z" fill="#51A8B1"/>
<path fill-rule="evenodd" clip-rule="evenodd" d="M90.4533 62.912C90.8898 62.8458 91.264 63.1104 91.3263 63.5072C91.3887 63.9701 91.1392 64.3669 90.7651 64.4331C90.3286 64.4992 89.9544 64.2347 89.892 63.7717C89.7673 63.441 90.0168 62.9781 90.4533 62.912Z" fill="#51A8B1"/>
<path fill-rule="evenodd" clip-rule="evenodd" d="M90.5784 56.8276C90.7655 56.7614 90.9526 56.8937 91.0149 57.1582C91.0773 57.3566 90.9526 57.555 90.7031 57.6212C90.5161 57.6873 90.329 57.555 90.2666 57.2905C90.2666 57.0921 90.3913 56.8937 90.5784 56.8276Z" fill="#51A8B1"/>
<path fill-rule="evenodd" clip-rule="evenodd" d="M77.4215 117.671V125.475H55.4707C52.9139 125.475 50.7937 125.012 48.9852 124.152C47.2392 123.293 45.8049 122.036 44.6824 120.383C43.5599 118.729 42.8116 116.745 42.3127 114.298C41.8138 111.918 41.5644 109.206 41.5644 106.164C41.5644 100.212 42.6245 95.5162 44.8071 92.1433C46.9274 88.7704 50.2948 87.1171 54.8471 87.1171H77.4215V94.7887H58.2145C56.6555 94.7887 55.4083 94.9871 54.4106 95.3839C53.4128 95.7807 52.6021 96.3098 51.9785 96.9711C51.3549 97.6325 50.9184 98.4922 50.7313 99.4181C50.4819 100.344 50.3572 101.336 50.3572 102.394H72.1832V110.066H50.3572C50.3572 112.513 50.9808 114.431 52.2903 115.753C53.5999 117.076 55.5954 117.737 58.2145 117.737H77.4215V117.671Z" fill="#51A8B1"/>
</svg>
